<svg width="310" height="116" viewBox="0 0 310 116" fill="none" xmlns="http://www.w3.org/2000/svg">
<path d="M6.88636 93V23.1818H33.6136C38.6591 23.1818 42.8523 23.9773 46.1932 25.5682C49.5568 27.1364 52.0682 29.2841 53.7273 32.0114C55.4091 34.7386 56.25 37.8295 56.25 41.2841C56.25 44.125 55.7045 46.5568 54.6136 48.5795C53.5227 50.5795 52.0568 52.2045 50.2159 53.4545C48.375 54.7045 46.3182 55.6023 44.0455 56.1477V56.8295C46.5227 56.9659 48.8977 57.7273 51.1705 59.1136C53.4659 60.4773 55.3409 62.4091 56.7955 64.9091C58.25 67.4091 58.9773 70.4318 58.9773 73.9773C58.9773 77.5909 58.1023 80.8409 56.3523 83.7273C54.6023 86.5909 51.9659 88.8523 48.4432 90.5114C44.9205 92.1705 40.4886 93 35.1477 93H6.88636ZM19.5341 82.4318H33.1364C37.7273 82.4318 41.0341 81.5568 43.0568 79.8068C45.1023 78.0341 46.125 75.7614 46.125 72.9886C46.125 70.9205 45.6136 69.0568 44.5909 67.3977C43.5682 65.7159 42.1136 64.3977 40.2273 63.4432C38.3409 62.4659 36.0909 61.9773 33.4773 61.9773H19.5341V82.4318ZM19.5341 52.875H32.0455C34.2273 52.875 36.1932 52.4773 37.9432 51.6818C39.6932 50.8636 41.0682 49.7159 42.0682 48.2386C43.0909 46.7386 43.6023 44.9659 43.6023 42.9205C43.6023 40.2159 42.6477 37.9886 40.7386 36.2386C38.8523 34.4886 36.0455 33.6136 32.3182 33.6136H19.5341V52.875ZM92.2756 94.0227C87.1619 94.0227 82.7301 92.8977 78.9801 90.6477C75.2301 88.3977 72.321 85.25 70.2528 81.2045C68.2074 77.1591 67.1847 72.4318 67.1847 67.0227C67.1847 61.6136 68.2074 56.875 70.2528 52.8068C72.321 48.7386 75.2301 45.5795 78.9801 43.3295C82.7301 41.0795 87.1619 39.9545 92.2756 39.9545C97.3892 39.9545 101.821 41.0795 105.571 43.3295C109.321 45.5795 112.219 48.7386 114.264 52.8068C116.332 56.875 117.366 61.6136 117.366 67.0227C117.366 72.4318 116.332 77.1591 114.264 81.2045C112.219 85.25 109.321 88.3977 105.571 90.6477C101.821 92.8977 97.3892 94.0227 92.2756 94.0227ZM92.3438 84.1364C95.1165 84.1364 97.4347 83.375 99.2983 81.8523C101.162 80.3068 102.548 78.2386 103.457 75.6477C104.389 73.0568 104.855 70.1705 104.855 66.9886C104.855 63.7841 104.389 60.8864 103.457 58.2955C102.548 55.6818 101.162 53.6023 99.2983 52.0568C97.4347 50.5114 95.1165 49.7386 92.3438 49.7386C89.5028 49.7386 87.1392 50.5114 85.2528 52.0568C83.3892 53.6023 81.9915 55.6818 81.0597 58.2955C80.1506 60.8864 79.696 63.7841 79.696 66.9886C79.696 70.1705 80.1506 73.0568 81.0597 75.6477C81.9915 78.2386 83.3892 80.3068 85.2528 81.8523C87.1392 83.375 89.5028 84.1364 92.3438 84.1364ZM150.682 94.0227C145.568 94.0227 141.136 92.8977 137.386 90.6477C133.636 88.3977 130.727 85.25 128.659 81.2045C126.614 77.1591 125.591 72.4318 125.591 67.0227C125.591 61.6136 126.614 56.875 128.659 52.8068C130.727 48.7386 133.636 45.5795 137.386 43.3295C141.136 41.0795 145.568 39.9545 150.682 39.9545C155.795 39.9545 160.227 41.0795 163.977 43.3295C167.727 45.5795 170.625 48.7386 172.67 52.8068C174.739 56.875 175.773 61.6136 175.773 67.0227C175.773 72.4318 174.739 77.1591 172.67 81.2045C170.625 85.25 167.727 88.3977 163.977 90.6477C160.227 92.8977 155.795 94.0227 150.682 94.0227ZM150.75 84.1364C153.523 84.1364 155.841 83.375 157.705 81.8523C159.568 80.3068 160.955 78.2386 161.864 75.6477C162.795 73.0568 163.261 70.1705 163.261 66.9886C163.261 63.7841 162.795 60.8864 161.864 58.2955C160.955 55.6818 159.568 53.6023 157.705 52.0568C155.841 50.5114 153.523 49.7386 150.75 49.7386C147.909 49.7386 145.545 50.5114 143.659 52.0568C141.795 53.6023 140.398 55.6818 139.466 58.2955C138.557 60.8864 138.102 63.7841 138.102 66.9886C138.102 70.1705 138.557 73.0568 139.466 75.6477C140.398 78.2386 141.795 80.3068 143.659 81.8523C145.545 83.375 147.909 84.1364 150.75 84.1364ZM197.497 76.5682L197.463 61.6705H199.44L218.259 40.6364H232.679L209.531 66.4091H206.974L197.497 76.5682ZM186.247 93V23.1818H198.588V93H186.247ZM219.111 93L202.065 69.1705L210.384 60.4773L233.872 93H219.111Z" fill="#1D70A2"/>
<path d="M248.945 93V43.9091H260.514V93H248.945ZM254.761 36.9418C252.929 36.9418 251.352 36.3345 250.031 35.12C248.71 33.8842 248.05 32.4034 248.05 30.6776C248.05 28.9304 248.71 27.4496 250.031 26.2351C251.352 24.9993 252.929 24.3814 254.761 24.3814C256.615 24.3814 258.192 24.9993 259.491 26.2351C260.813 27.4496 261.473 28.9304 261.473 30.6776C261.473 32.4034 260.813 33.8842 259.491 35.12C258.192 36.3345 256.615 36.9418 254.761 36.9418Z" fill="#136F63"/>
<path d="M231.714 63V57.8571H236.857V63H231.714ZM231.714 57.8571V52.7143H236.857V57.8571H231.714ZM236.857 57.8571V52.7143H242V57.8571H236.857ZM236.857 63V57.8571H242V63H236.857ZM236.857 52.7143V47.5714H242V52.7143H236.857ZM236.857 47.5714V42.4286H242V47.5714H236.857ZM242 52.7143V47.5714H247.143V52.7143H242ZM242 47.5714V42.4286H247.143V47.5714H242ZM242 42.4286V37.2857H247.143V42.4286H242ZM242 37.2857V32.1429H247.143V37.2857H242ZM247.143 37.2857V32.1429H252.286V37.2857H247.143ZM247.143 42.4286V37.2857H252.286V42.4286H247.143ZM247.143 32.1429V27H252.286V32.1429H247.143ZM247.143 27V21.8571H252.286V27H247.143ZM252.286 27V21.8571H257.429V27H252.286ZM252.286 32.1429V27H257.429V32.1429H252.286ZM257.429 32.1429V27H262.571V32.1429H257.429ZM257.429 27V21.8571H262.571V27H257.429ZM257.429 37.2857V32.1429H262.571V37.2857H257.429ZM252.286 37.2857V32.1429H257.429V37.2857H252.286ZM262.571 37.2857V32.1429H267.714V37.2857H262.571ZM262.571 42.4286V37.2857H267.714V42.4286H262.571ZM257.429 42.4286V37.2857H262.571V42.4286H257.429ZM262.571 47.5714V42.4286H267.714V47.5714H262.571ZM267.714 47.5714V42.4286H272.857V47.5714H267.714ZM267.714 52.7143V47.5714H272.857V52.7143H267.714ZM262.571 52.7143V47.5714H267.714V52.7143H262.571ZM267.714 57.8571V52.7143H272.857V57.8571H267.714ZM267.714 63V57.8571H272.857V63H267.714ZM272.857 63V57.8571H278V63H272.857ZM272.857 57.8571V52.7143H278V57.8571H272.857ZM272.857 52.7143V47.5714H278V52.7143H272.857ZM267.714 42.4286V37.2857H272.857V42.4286H267.714ZM262.571 32.1429V27H267.714V32.1429H262.571ZM231.714 52.7143V47.5714H236.857V52.7143H231.714ZM236.857 42.4286V37.2857H242V42.4286H236.857ZM242 32.1429V27H247.143V32.1429H242Z" fill="#D00000"/>
</svg>
